<svg xmlns="http://www.w3.org/2000/svg" xmlns:xlink="http://www.w3.org/1999/xlink" width="500" zoomAndPan="magnify" viewBox="0 0 375 374.999991" height="500" preserveAspectRatio="xMidYMid meet" version="1.0"><defs><clipPath id="0c634a7c68"><path d="M 111 218 L 254.828125 218 L 254.828125 287 L 111 287 Z M 111 218 " clip-rule="nonzero"/></clipPath></defs><path fill="#ffffff" d="M 162.210938 108.160156 C 166.945312 107.824219 180.089844 107.316406 181.394531 111.582031 C 182.578125 115.453125 176.527344 124.804688 171.925781 124.707031 L 162.0625 124.492188 C 159.582031 124.441406 156.390625 113.097656 160.773438 108.808594 C 161.175781 108.414062 161.648438 108.203125 162.210938 108.160156 Z M 164.542969 113.910156 C 164.316406 115.199219 164.566406 117.242188 164.957031 118.6875 L 171.613281 118.828125 C 172.71875 118.214844 174.332031 116.03125 175.152344 114.304688 C 172.371094 113.75 167.582031 113.789062 164.542969 113.910156 Z M 164.542969 113.910156 " fill-opacity="1" fill-rule="evenodd"/><path fill="#ffffff" d="M 203.941406 108.160156 C 199.207031 107.824219 186.0625 107.316406 184.757812 111.582031 C 183.574219 115.453125 189.625 124.804688 194.226562 124.707031 L 204.085938 124.492188 C 206.566406 124.441406 209.761719 113.097656 205.378906 108.808594 C 204.976562 108.414062 204.503906 108.203125 203.941406 108.160156 Z M 201.609375 113.910156 C 198.570312 113.789062 193.777344 113.75 191 114.304688 C 191.820312 116.03125 193.429688 118.214844 194.539062 118.828125 L 201.195312 118.6875 C 201.585938 117.242188 201.835938 115.199219 201.609375 113.910156 Z M 201.609375 113.910156 " fill-opacity="1" fill-rule="evenodd"/><path fill="#ffffff" d="M 179.964844 111.023438 L 186.1875 111.023438 L 186.1875 116.894531 L 179.964844 116.894531 Z M 179.964844 111.023438 " fill-opacity="1" fill-rule="nonzero"/><path fill="#ffffff" d="M 202.28125 110.820312 L 210.542969 103.019531 L 214.601562 107.234375 L 206.339844 115.039062 Z M 202.28125 110.820312 " fill-opacity="1" fill-rule="nonzero"/><path fill="#ffffff" d="M 159.8125 115.039062 L 151.550781 107.234375 L 155.609375 103.019531 L 163.871094 110.820312 Z M 159.8125 115.039062 " fill-opacity="1" fill-rule="nonzero"/><g clip-path="url(#0c634a7c68)"><path fill="#ffffff" d="M 123.605469 286.175781 L 111.664062 225.121094 C 110.910156 221.277344 114.867188 218 118.785156 218 L 247.367188 218 C 251.285156 218 255.238281 221.28125 254.488281 225.121094 L 242.546875 286.175781 Z M 163.164062 268.71875 L 144.761719 252.089844 L 163.164062 235.460938 L 169.042969 241.957031 L 157.832031 252.089844 L 169.042969 262.21875 Z M 197.109375 262.21875 L 208.320312 252.089844 L 197.109375 241.957031 L 202.988281 235.460938 L 221.390625 252.089844 L 202.988281 268.71875 Z M 197.109375 262.21875 " fill-opacity="1" fill-rule="evenodd"/></g><path fill="#ffffff" d="M 120.042969 292.046875 L 246.109375 292.046875 C 246.527344 292.046875 246.945312 292.085938 247.359375 292.167969 C 247.769531 292.25 248.171875 292.371094 248.558594 292.53125 C 248.949219 292.695312 249.316406 292.890625 249.667969 293.125 C 250.015625 293.359375 250.339844 293.625 250.636719 293.921875 C 250.933594 294.21875 251.199219 294.542969 251.433594 294.890625 C 251.667969 295.242188 251.863281 295.609375 252.027344 296 C 252.1875 296.386719 252.308594 296.789062 252.390625 297.199219 C 252.472656 297.613281 252.515625 298.03125 252.515625 298.449219 C 252.515625 298.871094 252.472656 299.289062 252.390625 299.699219 C 252.308594 300.113281 252.1875 300.511719 252.027344 300.902344 C 251.863281 301.289062 251.667969 301.660156 251.433594 302.007812 C 251.199219 302.359375 250.933594 302.683594 250.636719 302.980469 C 250.339844 303.277344 250.015625 303.542969 249.667969 303.777344 C 249.316406 304.011719 248.949219 304.207031 248.558594 304.367188 C 248.171875 304.53125 247.769531 304.652344 247.359375 304.734375 C 246.945312 304.816406 246.527344 304.855469 246.109375 304.855469 L 120.042969 304.855469 C 119.625 304.855469 119.207031 304.816406 118.792969 304.734375 C 118.382812 304.652344 117.980469 304.53125 117.59375 304.367188 C 117.203125 304.207031 116.835938 304.011719 116.484375 303.777344 C 116.136719 303.542969 115.8125 303.277344 115.515625 302.980469 C 115.21875 302.683594 114.953125 302.359375 114.71875 302.007812 C 114.484375 301.660156 114.285156 301.289062 114.125 300.902344 C 113.964844 300.511719 113.84375 300.113281 113.761719 299.699219 C 113.679688 299.289062 113.636719 298.871094 113.636719 298.449219 C 113.636719 298.03125 113.679688 297.613281 113.761719 297.199219 C 113.84375 296.789062 113.964844 296.386719 114.125 296 C 114.285156 295.609375 114.484375 295.242188 114.71875 294.890625 C 114.953125 294.542969 115.21875 294.21875 115.515625 293.921875 C 115.8125 293.625 116.136719 293.359375 116.484375 293.125 C 116.835938 292.890625 117.203125 292.695312 117.59375 292.53125 C 117.980469 292.371094 118.382812 292.25 118.792969 292.167969 C 119.207031 292.085938 119.625 292.046875 120.042969 292.046875 Z M 120.042969 292.046875 " fill-opacity="1" fill-rule="evenodd"/><path fill="#915eff" d="M 155.945312 168.621094 C 133.394531 178.9375 119.132812 181.804688 115.011719 212.6875 C 116.230469 212.328125 117.5 212.132812 118.785156 212.132812 L 247.367188 212.132812 C 248.652344 212.132812 249.921875 212.328125 251.140625 212.6875 C 247.019531 181.796875 232.757812 178.941406 210.207031 168.621094 C 203.609375 177.757812 193.722656 183.273438 183.074219 183.273438 C 172.429688 183.273438 162.542969 177.757812 155.945312 168.621094 Z M 155.945312 168.621094 " fill-opacity="1" fill-rule="evenodd"/><path fill="#915eff" d="M 220.921875 106.90625 C 230.902344 81.355469 224.359375 65.289062 201.300781 58.703125 C 197.46875 43.660156 184.113281 38.097656 161.238281 42.019531 C 161.304688 43.8125 161.503906 50.957031 164.851562 58.703125 C 141.792969 65.289062 135.25 81.355469 145.230469 106.90625 C 159.300781 101.582031 167.546875 96.785156 169.96875 84.125 C 191.214844 101.980469 205.007812 83.523438 220.921875 106.90625 Z M 220.921875 106.90625 " fill-opacity="1" fill-rule="evenodd"/><path fill="#915eff" d="M 218.570312 94.113281 L 218.570312 131.023438 C 218.570312 151.191406 202.058594 162.722656 183.078125 162.722656 C 164.09375 162.722656 147.582031 151.191406 147.582031 131.023438 L 147.582031 94.113281 L 155.84375 94.113281 L 155.84375 131.023438 C 155.84375 146.550781 168.738281 154.460938 183.078125 154.460938 C 197.414062 154.460938 210.308594 146.550781 210.308594 131.023438 L 210.308594 94.113281 Z M 218.570312 94.113281 " fill-opacity="1" fill-rule="nonzero"/><path fill="#915eff" d="M 137.328125 112.730469 C 137.328125 119.765625 141.660156 125.550781 147.21875 126.253906 C 147.339844 126.269531 147.808594 126.28125 148.394531 126.292969 L 148.394531 103.9375 C 148.382812 103.941406 148.371094 103.945312 148.355469 103.949219 C 147.738281 102.363281 147.175781 100.8125 146.675781 99.292969 C 141.382812 100.289062 137.328125 105.925781 137.328125 112.730469 Z M 137.328125 112.730469 " fill-opacity="1" fill-rule="evenodd"/><path fill="#915eff" d="M 217.753906 103.890625 L 217.753906 126.3125 C 218.082031 126.3125 218.320312 126.308594 218.371094 126.304688 C 224.195312 125.933594 228.824219 119.996094 228.824219 112.726562 C 228.824219 105.925781 224.769531 100.289062 219.476562 99.289062 C 218.972656 100.808594 218.414062 102.363281 217.792969 103.949219 C 217.78125 103.929688 217.769531 103.910156 217.753906 103.890625 Z M 217.753906 103.890625 " fill-opacity="1" fill-rule="evenodd"/></svg>