<svg xmlns="http://www.w3.org/2000/svg" xmlns:xlink="http://www.w3.org/1999/xlink" width="500" zoomAndPan="magnify" viewBox="0 0 375 374.999991" height="500" preserveAspectRatio="xMidYMid meet" version="1.0"><defs><g/><clipPath id="0ef8350e74"><path d="M 133 238 L 243 238 L 243 248.914062 L 133 248.914062 Z M 133 238 " clip-rule="nonzero"/></clipPath></defs><path fill="#1865c1" d="M 171.183594 94.382812 C 174.902344 94.121094 185.214844 93.71875 186.238281 97.066406 C 187.171875 100.105469 182.421875 107.445312 178.808594 107.367188 L 171.070312 107.203125 C 169.121094 107.160156 166.617188 98.257812 170.054688 94.890625 C 170.371094 94.582031 170.742188 94.414062 171.183594 94.382812 Z M 173.015625 98.898438 C 172.835938 99.90625 173.03125 101.511719 173.339844 102.644531 L 178.5625 102.757812 C 179.433594 102.273438 180.695312 100.558594 181.34375 99.207031 C 179.160156 98.769531 175.402344 98.800781 173.015625 98.898438 Z M 173.015625 98.898438 " fill-opacity="1" fill-rule="evenodd"/><path fill="#1865c1" d="M 203.9375 94.382812 C 200.21875 94.121094 189.902344 93.71875 188.878906 97.066406 C 187.949219 100.105469 192.699219 107.445312 196.3125 107.367188 L 204.050781 107.203125 C 205.996094 107.160156 208.503906 98.257812 205.066406 94.890625 C 204.75 94.582031 204.378906 94.414062 203.9375 94.382812 Z M 202.105469 98.898438 C 199.71875 98.800781 195.960938 98.769531 193.777344 99.207031 C 194.425781 100.558594 195.6875 102.273438 196.554688 102.757812 L 201.78125 102.644531 C 202.085938 101.511719 202.285156 99.90625 202.105469 98.898438 Z M 202.105469 98.898438 " fill-opacity="1" fill-rule="evenodd"/><path fill="#1865c1" d="M 185.117188 96.632812 L 190.003906 96.632812 L 190.003906 101.238281 L 185.117188 101.238281 Z M 185.117188 96.632812 " fill-opacity="1" fill-rule="nonzero"/><path fill="#1865c1" d="M 202.632812 96.472656 L 209.117188 90.347656 L 212.300781 93.65625 L 205.816406 99.78125 Z M 202.632812 96.472656 " fill-opacity="1" fill-rule="nonzero"/><path fill="#1865c1" d="M 169.304688 99.78125 L 162.820312 93.65625 L 166.003906 90.347656 L 172.488281 96.472656 Z M 169.304688 99.78125 " fill-opacity="1" fill-rule="nonzero"/><path fill="#1865c1" d="M 140.882812 234.09375 L 131.511719 186.179688 C 130.921875 183.160156 134.027344 180.589844 137.101562 180.589844 L 238.019531 180.589844 C 241.09375 180.589844 244.195312 183.164062 243.605469 186.179688 L 234.234375 234.09375 Z M 171.933594 220.394531 L 157.488281 207.34375 L 171.933594 194.292969 L 176.546875 199.390625 L 167.746094 207.34375 L 176.546875 215.292969 Z M 198.574219 215.292969 L 207.371094 207.34375 L 198.574219 199.390625 L 203.1875 194.292969 L 217.628906 207.34375 L 203.1875 220.394531 Z M 198.574219 215.292969 " fill-opacity="1" fill-rule="evenodd"/><g clip-path="url(#0ef8350e74)"><path fill="#1865c1" d="M 138.089844 238.703125 L 237.03125 238.703125 C 237.359375 238.703125 237.6875 238.734375 238.011719 238.796875 C 238.335938 238.863281 238.648438 238.957031 238.953125 239.085938 C 239.257812 239.210938 239.546875 239.363281 239.824219 239.546875 C 240.097656 239.730469 240.351562 239.941406 240.585938 240.171875 C 240.816406 240.40625 241.027344 240.660156 241.210938 240.9375 C 241.394531 241.210938 241.546875 241.5 241.675781 241.804688 C 241.800781 242.109375 241.894531 242.425781 241.960938 242.746094 C 242.023438 243.070312 242.058594 243.398438 242.058594 243.730469 C 242.058594 244.058594 242.023438 244.386719 241.960938 244.710938 C 241.894531 245.03125 241.800781 245.347656 241.675781 245.652344 C 241.546875 245.957031 241.394531 246.246094 241.210938 246.523438 C 241.027344 246.796875 240.816406 247.050781 240.585938 247.285156 C 240.351562 247.515625 240.097656 247.726562 239.824219 247.910156 C 239.546875 248.09375 239.257812 248.246094 238.953125 248.375 C 238.648438 248.5 238.335938 248.59375 238.011719 248.660156 C 237.6875 248.722656 237.359375 248.757812 237.03125 248.757812 L 138.089844 248.757812 C 137.761719 248.757812 137.433594 248.722656 137.109375 248.660156 C 136.785156 248.59375 136.472656 248.5 136.167969 248.375 C 135.863281 248.246094 135.570312 248.09375 135.296875 247.910156 C 135.023438 247.726562 134.769531 247.515625 134.535156 247.285156 C 134.300781 247.050781 134.09375 246.796875 133.910156 246.523438 C 133.726562 246.246094 133.570312 245.957031 133.445312 245.652344 C 133.320312 245.347656 133.222656 245.03125 133.160156 244.710938 C 133.09375 244.386719 133.0625 244.058594 133.0625 243.730469 C 133.0625 243.398438 133.09375 243.070312 133.160156 242.746094 C 133.222656 242.425781 133.320312 242.109375 133.445312 241.804688 C 133.570312 241.5 133.726562 241.210938 133.910156 240.9375 C 134.09375 240.660156 134.300781 240.40625 134.535156 240.171875 C 134.769531 239.941406 135.023438 239.730469 135.296875 239.546875 C 135.570312 239.363281 135.863281 239.210938 136.167969 239.085938 C 136.472656 238.957031 136.785156 238.863281 137.109375 238.796875 C 137.433594 238.734375 137.761719 238.703125 138.089844 238.703125 Z M 138.089844 238.703125 " fill-opacity="1" fill-rule="evenodd"/></g><path fill="#ffffff" d="M 166.269531 141.835938 C 148.566406 149.929688 137.375 152.179688 134.140625 176.417969 C 135.097656 176.136719 136.09375 175.984375 137.101562 175.984375 L 238.019531 175.984375 C 239.023438 175.984375 240.023438 176.136719 240.980469 176.417969 C 237.746094 152.175781 226.550781 149.933594 208.851562 141.835938 C 203.675781 149.003906 195.917969 153.332031 187.558594 153.332031 C 179.203125 153.332031 171.445312 149.003906 166.269531 141.835938 Z M 166.269531 141.835938 " fill-opacity="1" fill-rule="evenodd"/><path fill="#ffffff" d="M 217.261719 93.398438 C 225.09375 73.347656 219.960938 60.734375 201.863281 55.570312 C 198.855469 43.757812 188.375 39.394531 170.421875 42.472656 C 170.472656 43.882812 170.628906 49.488281 173.257812 55.570312 C 155.160156 60.734375 150.027344 73.347656 157.859375 93.398438 C 168.898438 89.21875 175.371094 85.453125 177.273438 75.515625 C 193.949219 89.53125 204.773438 75.046875 217.261719 93.398438 Z M 217.261719 93.398438 " fill-opacity="1" fill-rule="evenodd"/><path fill="#ffffff" d="M 215.417969 83.359375 L 215.417969 112.328125 C 215.417969 128.15625 202.457031 137.203125 187.5625 137.203125 C 172.664062 137.203125 159.703125 128.15625 159.703125 112.328125 L 159.703125 83.359375 L 166.1875 83.359375 L 166.1875 112.328125 C 166.1875 124.511719 176.308594 130.71875 187.5625 130.71875 C 198.8125 130.71875 208.933594 124.511719 208.933594 112.328125 L 208.933594 83.359375 Z M 215.417969 83.359375 " fill-opacity="1" fill-rule="nonzero"/><path fill="#ffffff" d="M 151.65625 97.96875 C 151.65625 103.488281 155.058594 108.03125 159.417969 108.582031 C 159.515625 108.59375 159.882812 108.605469 160.34375 108.613281 L 160.34375 91.066406 C 160.332031 91.070312 160.320312 91.074219 160.3125 91.078125 C 159.828125 89.832031 159.386719 88.613281 158.992188 87.421875 C 154.835938 88.207031 151.65625 92.628906 151.65625 97.96875 Z M 151.65625 97.96875 " fill-opacity="1" fill-rule="evenodd"/><path fill="#ffffff" d="M 214.777344 91.03125 L 214.777344 108.628906 C 215.035156 108.628906 215.222656 108.625 215.261719 108.625 C 219.832031 108.332031 223.464844 103.671875 223.464844 97.96875 C 223.464844 92.628906 220.28125 88.203125 216.128906 87.421875 C 215.734375 88.613281 215.292969 89.832031 214.808594 91.078125 C 214.796875 91.0625 214.789062 91.046875 214.777344 91.03125 Z M 214.777344 91.03125 " fill-opacity="1" fill-rule="evenodd"/><g fill="#ffffff" fill-opacity="1"><g transform="translate(79.820423, 278.050616)"><g><path d="M 1.203125 -0.390625 L 1.203125 -18.8125 C 1.203125 -19.070312 1.328125 -19.203125 1.578125 -19.203125 L 7.34375 -19.203125 C 8.476562 -19.203125 9.335938 -18.910156 9.921875 -18.328125 C 10.503906 -17.742188 10.796875 -16.882812 10.796875 -15.75 L 10.796875 -9.890625 C 10.796875 -8.765625 10.503906 -7.90625 9.921875 -7.3125 C 9.335938 -6.726562 8.476562 -6.4375 7.34375 -6.4375 L 4.46875 -6.4375 L 4.46875 -0.390625 C 4.46875 -0.128906 4.335938 0 4.078125 0 L 1.578125 0 C 1.328125 0 1.203125 -0.128906 1.203125 -0.390625 Z M 4.46875 -9.59375 L 6.578125 -9.59375 C 7.210938 -9.59375 7.53125 -9.914062 7.53125 -10.5625 L 7.53125 -15.078125 C 7.53125 -15.710938 7.210938 -16.03125 6.578125 -16.03125 L 4.46875 -16.03125 Z M 4.46875 -9.59375 "/></g></g></g><g fill="#ffffff" fill-opacity="1"><g transform="translate(91.820445, 278.050616)"><g><path d="M 11.0625 -15.75 L 11.0625 -9.890625 C 11.0625 -8.285156 10.476562 -7.226562 9.3125 -6.71875 L 10.96875 -0.4375 C 11.050781 -0.144531 10.9375 0 10.625 0 L 8.140625 0 C 7.910156 0 7.773438 -0.113281 7.734375 -0.34375 L 6.125 -6.4375 L 4.46875 -6.4375 L 4.46875 -0.390625 C 4.46875 -0.128906 4.335938 0 4.078125 0 L 1.578125 0 C 1.328125 0 1.203125 -0.128906 1.203125 -0.390625 L 1.203125 -18.8125 C 1.203125 -19.070312 1.328125 -19.203125 1.578125 -19.203125 L 7.609375 -19.203125 C 8.742188 -19.203125 9.601562 -18.910156 10.1875 -18.328125 C 10.769531 -17.742188 11.0625 -16.882812 11.0625 -15.75 Z M 4.46875 -9.59375 L 6.84375 -9.59375 C 7.476562 -9.59375 7.796875 -9.914062 7.796875 -10.5625 L 7.796875 -15.078125 C 7.796875 -15.710938 7.476562 -16.03125 6.84375 -16.03125 L 4.46875 -16.03125 Z M 4.46875 -9.59375 "/></g></g></g><g fill="#ffffff" fill-opacity="1"><g transform="translate(104.084471, 278.050616)"><g><path d="M 1.578125 -19.203125 L 4.078125 -19.203125 C 4.335938 -19.203125 4.46875 -19.070312 4.46875 -18.8125 L 4.46875 -0.390625 C 4.46875 -0.128906 4.335938 0 4.078125 0 L 1.578125 0 C 1.328125 0 1.203125 -0.128906 1.203125 -0.390625 L 1.203125 -18.8125 C 1.203125 -19.070312 1.328125 -19.203125 1.578125 -19.203125 Z M 1.578125 -19.203125 "/></g></g></g><g fill="#ffffff" fill-opacity="1"><g transform="translate(109.748483, 278.050616)"><g><path d="M 1.109375 -19.203125 L 9.9375 -19.203125 C 10.1875 -19.203125 10.3125 -19.070312 10.3125 -18.8125 L 10.3125 -16.421875 C 10.3125 -16.160156 10.1875 -16.03125 9.9375 -16.03125 L 7.15625 -16.03125 L 7.15625 -0.390625 C 7.15625 -0.128906 7.023438 0 6.765625 0 L 4.265625 0 C 4.015625 0 3.890625 -0.128906 3.890625 -0.390625 L 3.890625 -16.03125 L 1.109375 -16.03125 C 0.847656 -16.03125 0.71875 -16.160156 0.71875 -16.421875 L 0.71875 -18.8125 C 0.71875 -19.070312 0.847656 -19.203125 1.109375 -19.203125 Z M 1.109375 -19.203125 "/></g></g></g><g fill="#ffffff" fill-opacity="1"><g transform="translate(120.788506, 278.050616)"><g><path d="M 7.53125 -11.1875 L 7.53125 -18.8125 C 7.53125 -19.070312 7.660156 -19.203125 7.921875 -19.203125 L 10.390625 -19.203125 C 10.660156 -19.203125 10.796875 -19.070312 10.796875 -18.8125 L 10.796875 -0.390625 C 10.796875 -0.128906 10.660156 0 10.390625 0 L 7.921875 0 C 7.660156 0 7.53125 -0.128906 7.53125 -0.390625 L 7.53125 -8.015625 L 4.46875 -8.015625 L 4.46875 -0.390625 C 4.46875 -0.128906 4.335938 0 4.078125 0 L 1.609375 0 C 1.335938 0 1.203125 -0.128906 1.203125 -0.390625 L 1.203125 -18.8125 C 1.203125 -19.070312 1.335938 -19.203125 1.609375 -19.203125 L 4.078125 -19.203125 C 4.335938 -19.203125 4.46875 -19.070312 4.46875 -18.8125 L 4.46875 -11.1875 Z M 7.53125 -11.1875 "/></g></g></g><g fill="#ffffff" fill-opacity="1"><g transform="translate(132.788528, 278.050616)"><g><path d="M 9.578125 -19.203125 L 11.859375 -19.203125 C 12.222656 -19.203125 12.363281 -19.023438 12.28125 -18.671875 L 8.234375 -0.4375 C 8.171875 -0.144531 7.992188 0 7.703125 0 L 5.296875 0 C 5.023438 0 4.851562 -0.144531 4.78125 -0.4375 L 0.75 -18.671875 C 0.664062 -19.023438 0.804688 -19.203125 1.171875 -19.203125 L 3.453125 -19.203125 C 3.742188 -19.203125 3.921875 -19.054688 3.984375 -18.765625 L 6.5 -5.90625 L 9.046875 -18.765625 C 9.128906 -19.054688 9.304688 -19.203125 9.578125 -19.203125 Z M 9.578125 -19.203125 "/></g></g></g><g fill="#ffffff" fill-opacity="1"><g transform="translate(145.820556, 278.050616)"><g><path d="M 1.578125 -19.203125 L 4.078125 -19.203125 C 4.335938 -19.203125 4.46875 -19.070312 4.46875 -18.8125 L 4.46875 -0.390625 C 4.46875 -0.128906 4.335938 0 4.078125 0 L 1.578125 0 C 1.328125 0 1.203125 -0.128906 1.203125 -0.390625 L 1.203125 -18.8125 C 1.203125 -19.070312 1.328125 -19.203125 1.578125 -19.203125 Z M 1.578125 -19.203125 "/></g></g></g><g fill="#ffffff" fill-opacity="1"><g transform="translate(151.484569, 278.050616)"><g/></g></g><g fill="#ffffff" fill-opacity="1"><g transform="translate(157.48458, 278.050616)"><g><path d="M 10.78125 -18.8125 L 10.78125 -16.421875 C 10.78125 -16.148438 10.648438 -16.015625 10.390625 -16.015625 L 4.390625 -16.015625 L 4.390625 -11.203125 L 8.96875 -11.203125 C 9.226562 -11.203125 9.359375 -11.066406 9.359375 -10.796875 L 9.359375 -8.421875 C 9.359375 -8.148438 9.226562 -8.015625 8.96875 -8.015625 L 4.390625 -8.015625 L 4.390625 -3.171875 L 10.390625 -3.171875 C 10.648438 -3.171875 10.78125 -3.039062 10.78125 -2.78125 L 10.78125 -0.390625 C 10.78125 -0.128906 10.648438 0 10.390625 0 L 1.5625 0 C 1.320312 0 1.203125 -0.128906 1.203125 -0.390625 L 1.203125 -18.8125 C 1.203125 -19.070312 1.320312 -19.203125 1.5625 -19.203125 L 10.390625 -19.203125 C 10.648438 -19.203125 10.78125 -19.070312 10.78125 -18.8125 Z M 10.78125 -18.8125 "/></g></g></g><g fill="#ffffff" fill-opacity="1"><g transform="translate(169.460604, 278.050616)"><g><path d="M 4.46875 -3.171875 L 4.46875 -18.8125 C 4.46875 -19.070312 4.335938 -19.203125 4.078125 -19.203125 L 1.578125 -19.203125 C 1.328125 -19.203125 1.203125 -19.070312 1.203125 -18.8125 L 1.203125 -0.390625 C 1.203125 -0.128906 1.328125 0 1.578125 0 L 10.171875 0 C 10.429688 0 10.5625 -0.128906 10.5625 -0.390625 L 10.5625 -2.78125 C 10.5625 -3.039062 10.429688 -3.171875 10.171875 -3.171875 Z M 4.46875 -3.171875 "/></g></g></g><g fill="#ffffff" fill-opacity="1"><g transform="translate(181.220632, 278.050616)"><g><path d="M 12.765625 0 L 10.21875 0 C 10.007812 0 9.882812 -0.113281 9.84375 -0.34375 L 9.171875 -3.84375 L 4.890625 -3.84375 L 4.25 -0.34375 C 4.195312 -0.113281 4.066406 0 3.859375 0 L 1.296875 0 C 1.003906 0 0.898438 -0.132812 0.984375 -0.40625 L 4.96875 -18.859375 C 5.019531 -19.085938 5.15625 -19.203125 5.375 -19.203125 L 8.71875 -19.203125 C 8.9375 -19.203125 9.070312 -19.085938 9.125 -18.859375 L 13.109375 -0.40625 C 13.148438 -0.132812 13.035156 0 12.765625 0 Z M 8.5625 -6.625 L 7.03125 -15 L 5.5 -6.625 Z M 8.5625 -6.625 "/></g></g></g><g fill="#ffffff" fill-opacity="1"><g transform="translate(195.284664, 278.050616)"><g><path d="M 8.5625 -19.203125 L 11.0625 -19.203125 C 11.320312 -19.203125 11.453125 -19.070312 11.453125 -18.8125 L 11.453125 -0.390625 C 11.453125 -0.128906 11.320312 0 11.0625 0 L 8.6875 0 C 8.46875 0 8.320312 -0.101562 8.25 -0.3125 L 4.578125 -10.5625 L 4.46875 -10.5625 L 4.46875 -0.390625 C 4.46875 -0.128906 4.335938 0 4.078125 0 L 1.578125 0 C 1.328125 0 1.203125 -0.128906 1.203125 -0.390625 L 1.203125 -18.8125 C 1.203125 -19.070312 1.328125 -19.203125 1.578125 -19.203125 L 3.953125 -19.203125 C 4.179688 -19.203125 4.328125 -19.097656 4.390625 -18.890625 L 8.046875 -8.6875 L 8.1875 -8.6875 L 8.1875 -18.8125 C 8.1875 -19.070312 8.3125 -19.203125 8.5625 -19.203125 Z M 8.5625 -19.203125 "/></g></g></g><g fill="#ffffff" fill-opacity="1"><g transform="translate(207.932685, 278.050616)"><g><path d="M 10.828125 -15.75 L 10.828125 -13.15625 C 10.828125 -12.894531 10.695312 -12.765625 10.4375 -12.765625 L 8.046875 -12.765625 C 7.785156 -12.765625 7.65625 -12.894531 7.65625 -13.15625 L 7.65625 -15.078125 C 7.65625 -15.710938 7.335938 -16.03125 6.703125 -16.03125 L 5.453125 -16.03125 C 4.804688 -16.03125 4.484375 -15.710938 4.484375 -15.078125 L 4.484375 -4.125 C 4.484375 -3.488281 4.804688 -3.171875 5.453125 -3.171875 L 6.703125 -3.171875 C 7.335938 -3.171875 7.65625 -3.488281 7.65625 -4.125 L 7.65625 -6.046875 C 7.65625 -6.304688 7.785156 -6.4375 8.046875 -6.4375 L 10.4375 -6.4375 C 10.695312 -6.4375 10.828125 -6.304688 10.828125 -6.046875 L 10.828125 -3.453125 C 10.828125 -2.335938 10.53125 -1.484375 9.9375 -0.890625 C 9.34375 -0.296875 8.488281 0 7.375 0 L 4.6875 0 C 3.5625 0 2.695312 -0.296875 2.09375 -0.890625 C 1.5 -1.484375 1.203125 -2.335938 1.203125 -3.453125 L 1.203125 -15.75 C 1.203125 -16.882812 1.5 -17.742188 2.09375 -18.328125 C 2.695312 -18.910156 3.5625 -19.203125 4.6875 -19.203125 L 7.375 -19.203125 C 8.488281 -19.203125 9.34375 -18.910156 9.9375 -18.328125 C 10.53125 -17.742188 10.828125 -16.882812 10.828125 -15.75 Z M 10.828125 -15.75 "/></g></g></g><g fill="#ffffff" fill-opacity="1"><g transform="translate(219.956706, 278.050616)"><g><path d="M 7.53125 -11.1875 L 7.53125 -18.8125 C 7.53125 -19.070312 7.660156 -19.203125 7.921875 -19.203125 L 10.390625 -19.203125 C 10.660156 -19.203125 10.796875 -19.070312 10.796875 -18.8125 L 10.796875 -0.390625 C 10.796875 -0.128906 10.660156 0 10.390625 0 L 7.921875 0 C 7.660156 0 7.53125 -0.128906 7.53125 -0.390625 L 7.53125 -8.015625 L 4.46875 -8.015625 L 4.46875 -0.390625 C 4.46875 -0.128906 4.335938 0 4.078125 0 L 1.609375 0 C 1.335938 0 1.203125 -0.128906 1.203125 -0.390625 L 1.203125 -18.8125 C 1.203125 -19.070312 1.335938 -19.203125 1.609375 -19.203125 L 4.078125 -19.203125 C 4.335938 -19.203125 4.46875 -19.070312 4.46875 -18.8125 L 4.46875 -11.1875 Z M 7.53125 -11.1875 "/></g></g></g><g fill="#ffffff" fill-opacity="1"><g transform="translate(231.956728, 278.050616)"><g><path d="M 10.78125 -18.8125 L 10.78125 -16.421875 C 10.78125 -16.148438 10.648438 -16.015625 10.390625 -16.015625 L 4.390625 -16.015625 L 4.390625 -11.203125 L 8.96875 -11.203125 C 9.226562 -11.203125 9.359375 -11.066406 9.359375 -10.796875 L 9.359375 -8.421875 C 9.359375 -8.148438 9.226562 -8.015625 8.96875 -8.015625 L 4.390625 -8.015625 L 4.390625 -3.171875 L 10.390625 -3.171875 C 10.648438 -3.171875 10.78125 -3.039062 10.78125 -2.78125 L 10.78125 -0.390625 C 10.78125 -0.128906 10.648438 0 10.390625 0 L 1.5625 0 C 1.320312 0 1.203125 -0.128906 1.203125 -0.390625 L 1.203125 -18.8125 C 1.203125 -19.070312 1.320312 -19.203125 1.5625 -19.203125 L 10.390625 -19.203125 C 10.648438 -19.203125 10.78125 -19.070312 10.78125 -18.8125 Z M 10.78125 -18.8125 "/></g></g></g><g fill="#ffffff" fill-opacity="1"><g transform="translate(243.932752, 278.050616)"><g><path d="M 11.0625 -15.75 L 11.0625 -9.890625 C 11.0625 -8.285156 10.476562 -7.226562 9.3125 -6.71875 L 10.96875 -0.4375 C 11.050781 -0.144531 10.9375 0 10.625 0 L 8.140625 0 C 7.910156 0 7.773438 -0.113281 7.734375 -0.34375 L 6.125 -6.4375 L 4.46875 -6.4375 L 4.46875 -0.390625 C 4.46875 -0.128906 4.335938 0 4.078125 0 L 1.578125 0 C 1.328125 0 1.203125 -0.128906 1.203125 -0.390625 L 1.203125 -18.8125 C 1.203125 -19.070312 1.328125 -19.203125 1.578125 -19.203125 L 7.609375 -19.203125 C 8.742188 -19.203125 9.601562 -18.910156 10.1875 -18.328125 C 10.769531 -17.742188 11.0625 -16.882812 11.0625 -15.75 Z M 4.46875 -9.59375 L 6.84375 -9.59375 C 7.476562 -9.59375 7.796875 -9.914062 7.796875 -10.5625 L 7.796875 -15.078125 C 7.796875 -15.710938 7.476562 -16.03125 6.84375 -16.03125 L 4.46875 -16.03125 Z M 4.46875 -9.59375 "/></g></g></g><g fill="#ffffff" fill-opacity="1"><g transform="translate(256.196777, 278.050616)"><g><path d="M 11.0625 -15.75 L 11.0625 -9.890625 C 11.0625 -8.285156 10.476562 -7.226562 9.3125 -6.71875 L 10.96875 -0.4375 C 11.050781 -0.144531 10.9375 0 10.625 0 L 8.140625 0 C 7.910156 0 7.773438 -0.113281 7.734375 -0.34375 L 6.125 -6.4375 L 4.46875 -6.4375 L 4.46875 -0.390625 C 4.46875 -0.128906 4.335938 0 4.078125 0 L 1.578125 0 C 1.328125 0 1.203125 -0.128906 1.203125 -0.390625 L 1.203125 -18.8125 C 1.203125 -19.070312 1.328125 -19.203125 1.578125 -19.203125 L 7.609375 -19.203125 C 8.742188 -19.203125 9.601562 -18.910156 10.1875 -18.328125 C 10.769531 -17.742188 11.0625 -16.882812 11.0625 -15.75 Z M 4.46875 -9.59375 L 6.84375 -9.59375 C 7.476562 -9.59375 7.796875 -9.914062 7.796875 -10.5625 L 7.796875 -15.078125 C 7.796875 -15.710938 7.476562 -16.03125 6.84375 -16.03125 L 4.46875 -16.03125 Z M 4.46875 -9.59375 "/></g></g></g><g fill="#ffffff" fill-opacity="1"><g transform="translate(268.460803, 278.050616)"><g><path d="M 12.765625 0 L 10.21875 0 C 10.007812 0 9.882812 -0.113281 9.84375 -0.34375 L 9.171875 -3.84375 L 4.890625 -3.84375 L 4.25 -0.34375 C 4.195312 -0.113281 4.066406 0 3.859375 0 L 1.296875 0 C 1.003906 0 0.898438 -0.132812 0.984375 -0.40625 L 4.96875 -18.859375 C 5.019531 -19.085938 5.15625 -19.203125 5.375 -19.203125 L 8.71875 -19.203125 C 8.9375 -19.203125 9.070312 -19.085938 9.125 -18.859375 L 13.109375 -0.40625 C 13.148438 -0.132812 13.035156 0 12.765625 0 Z M 8.5625 -6.625 L 7.03125 -15 L 5.5 -6.625 Z M 8.5625 -6.625 "/></g></g></g><g fill="#ffffff" fill-opacity="1"><g transform="translate(282.524847, 278.050616)"><g><path d="M 8.5625 -19.203125 L 11.0625 -19.203125 C 11.320312 -19.203125 11.453125 -19.070312 11.453125 -18.8125 L 11.453125 -0.390625 C 11.453125 -0.128906 11.320312 0 11.0625 0 L 8.6875 0 C 8.46875 0 8.320312 -0.101562 8.25 -0.3125 L 4.578125 -10.5625 L 4.46875 -10.5625 L 4.46875 -0.390625 C 4.46875 -0.128906 4.335938 0 4.078125 0 L 1.578125 0 C 1.328125 0 1.203125 -0.128906 1.203125 -0.390625 L 1.203125 -18.8125 C 1.203125 -19.070312 1.328125 -19.203125 1.578125 -19.203125 L 3.953125 -19.203125 C 4.179688 -19.203125 4.328125 -19.097656 4.390625 -18.890625 L 8.046875 -8.6875 L 8.1875 -8.6875 L 8.1875 -18.8125 C 8.1875 -19.070312 8.3125 -19.203125 8.5625 -19.203125 Z M 8.5625 -19.203125 "/></g></g></g></svg>