<svg xmlns="http://www.w3.org/2000/svg" xmlns:xlink="http://www.w3.org/1999/xlink" width="500" zoomAndPan="magnify" viewBox="0 0 375 374.999991" height="500" preserveAspectRatio="xMidYMid meet" version="1.0"><defs><g/></defs><path fill="#1865c1" d="M 166.132812 91.398438 C 172.261719 90.964844 189.269531 90.304688 190.957031 95.820312 C 192.492188 100.832031 184.660156 112.925781 178.707031 112.796875 L 165.945312 112.523438 C 162.738281 112.453125 158.605469 97.785156 164.273438 92.234375 C 164.796875 91.726562 165.40625 91.449219 166.132812 91.398438 Z M 169.15625 98.835938 C 168.859375 100.503906 169.183594 103.144531 169.6875 105.011719 L 178.300781 105.199219 C 179.734375 104.402344 181.816406 101.578125 182.882812 99.34375 C 179.285156 98.628906 173.085938 98.675781 169.15625 98.835938 Z M 169.15625 98.835938 " fill-opacity="1" fill-rule="evenodd"/><path fill="#1865c1" d="M 220.132812 91.398438 C 214.003906 90.964844 196.996094 90.304688 195.308594 95.820312 C 193.777344 100.832031 201.609375 112.925781 207.558594 112.796875 L 220.320312 112.523438 C 223.53125 112.453125 227.664062 97.785156 221.992188 92.234375 C 221.472656 91.726562 220.863281 91.449219 220.132812 91.398438 Z M 217.113281 98.835938 C 213.179688 98.675781 206.984375 98.628906 203.386719 99.34375 C 204.449219 101.578125 206.53125 104.402344 207.964844 105.199219 L 216.578125 105.011719 C 217.085938 103.144531 217.40625 100.503906 217.113281 98.835938 Z M 217.113281 98.835938 " fill-opacity="1" fill-rule="evenodd"/><path fill="#1865c1" d="M 189.105469 95.101562 L 197.160156 95.101562 L 197.160156 102.691406 L 189.105469 102.691406 Z M 189.105469 95.101562 " fill-opacity="1" fill-rule="nonzero"/><path fill="#1865c1" d="M 217.984375 94.839844 L 228.675781 84.746094 L 233.925781 90.203125 L 223.234375 100.292969 Z M 217.984375 94.839844 " fill-opacity="1" fill-rule="nonzero"/><path fill="#1865c1" d="M 163.035156 100.292969 L 152.34375 90.203125 L 157.59375 84.746094 L 168.28125 94.839844 Z M 163.035156 100.292969 " fill-opacity="1" fill-rule="nonzero"/><path fill="#1865c1" d="M 116.179688 321.644531 L 100.730469 242.675781 C 99.757812 237.703125 104.878906 233.464844 109.945312 233.464844 L 276.320312 233.464844 C 281.390625 233.464844 286.507812 237.707031 285.535156 242.675781 L 270.085938 321.644531 Z M 167.367188 299.0625 L 143.558594 277.554688 L 167.367188 256.046875 L 174.976562 264.453125 L 160.46875 277.554688 L 174.976562 290.65625 Z M 211.292969 290.65625 L 225.796875 277.554688 L 211.292969 264.453125 L 218.898438 256.046875 L 242.710938 277.554688 L 218.898438 299.0625 Z M 211.292969 290.65625 " fill-opacity="1" fill-rule="evenodd"/><path fill="#1865c1" d="M 111.574219 329.234375 L 274.691406 329.234375 C 275.238281 329.234375 275.777344 329.285156 276.308594 329.390625 C 276.84375 329.5 277.363281 329.65625 277.863281 329.863281 C 278.367188 330.070312 278.84375 330.328125 279.296875 330.628906 C 279.75 330.933594 280.167969 331.273438 280.554688 331.660156 C 280.9375 332.042969 281.28125 332.464844 281.585938 332.914062 C 281.886719 333.367188 282.140625 333.84375 282.351562 334.347656 C 282.558594 334.851562 282.714844 335.367188 282.820312 335.902344 C 282.929688 336.433594 282.980469 336.972656 282.980469 337.519531 C 282.980469 338.0625 282.929688 338.601562 282.820312 339.132812 C 282.714844 339.667969 282.558594 340.1875 282.351562 340.6875 C 282.140625 341.191406 281.886719 341.667969 281.585938 342.121094 C 281.28125 342.574219 280.9375 342.992188 280.554688 343.375 C 280.167969 343.761719 279.75 344.105469 279.296875 344.40625 C 278.84375 344.707031 278.367188 344.964844 277.863281 345.171875 C 277.363281 345.378906 276.84375 345.539062 276.308594 345.644531 C 275.777344 345.75 275.238281 345.804688 274.691406 345.804688 L 111.574219 345.804688 C 111.03125 345.804688 110.492188 345.75 109.957031 345.644531 C 109.425781 345.539062 108.90625 345.378906 108.402344 345.171875 C 107.898438 344.964844 107.421875 344.707031 106.96875 344.40625 C 106.515625 344.105469 106.097656 343.761719 105.714844 343.375 C 105.328125 342.992188 104.984375 342.574219 104.683594 342.121094 C 104.378906 341.667969 104.125 341.191406 103.917969 340.6875 C 103.707031 340.1875 103.550781 339.667969 103.445312 339.132812 C 103.339844 338.601562 103.285156 338.0625 103.285156 337.519531 C 103.285156 336.972656 103.339844 336.433594 103.445312 335.902344 C 103.550781 335.367188 103.707031 334.851562 103.917969 334.347656 C 104.125 333.84375 104.378906 333.367188 104.683594 332.914062 C 104.984375 332.464844 105.328125 332.042969 105.714844 331.660156 C 106.097656 331.273438 106.515625 330.933594 106.96875 330.628906 C 107.421875 330.328125 107.898438 330.070312 108.402344 329.863281 C 108.90625 329.65625 109.425781 329.5 109.957031 329.390625 C 110.492188 329.285156 111.03125 329.234375 111.574219 329.234375 Z M 111.574219 329.234375 " fill-opacity="1" fill-rule="evenodd"/><path fill="#db4437" d="M 158.03125 169.597656 C 128.847656 182.941406 110.394531 186.648438 105.0625 226.59375 C 106.640625 226.128906 108.285156 225.875 109.945312 225.875 L 276.320312 225.875 C 277.980469 225.875 279.628906 226.128906 281.203125 226.59375 C 275.871094 186.640625 257.417969 182.945312 228.238281 169.597656 C 219.703125 181.414062 206.910156 188.546875 193.132812 188.546875 C 179.359375 188.546875 166.566406 181.414062 158.03125 169.597656 Z M 158.03125 169.597656 " fill-opacity="1" fill-rule="evenodd"/><path fill="#db4437" d="M 242.105469 89.777344 C 255.015625 56.730469 246.554688 35.949219 216.714844 27.433594 C 211.753906 7.972656 194.476562 0.777344 164.878906 5.851562 C 164.960938 8.171875 165.222656 17.414062 169.554688 27.433594 C 139.714844 35.949219 131.25 56.730469 144.164062 89.777344 C 162.371094 82.886719 173.039062 76.683594 176.175781 60.308594 C 203.667969 83.402344 221.511719 59.535156 242.105469 89.777344 Z M 242.105469 89.777344 " fill-opacity="1" fill-rule="evenodd"/><path fill="#db4437" d="M 239.058594 73.230469 L 239.058594 120.972656 C 239.058594 147.054688 217.695312 161.96875 193.132812 161.96875 C 168.574219 161.96875 147.210938 147.054688 147.210938 120.972656 L 147.210938 73.230469 L 157.898438 73.230469 L 157.898438 120.972656 C 157.898438 141.050781 174.582031 151.28125 193.132812 151.28125 C 211.6875 151.28125 228.371094 141.050781 228.371094 120.972656 L 228.371094 73.230469 Z M 239.058594 73.230469 " fill-opacity="1" fill-rule="nonzero"/><path fill="#db4437" d="M 133.9375 97.308594 C 133.9375 106.40625 139.546875 113.890625 146.734375 114.800781 C 146.894531 114.820312 147.5 114.835938 148.261719 114.851562 L 148.261719 85.933594 C 148.242188 85.941406 148.226562 85.945312 148.210938 85.953125 C 147.410156 83.902344 146.683594 81.890625 146.03125 79.925781 C 139.183594 81.21875 133.9375 88.507812 133.9375 97.308594 Z M 133.9375 97.308594 " fill-opacity="1" fill-rule="evenodd"/><path fill="#db4437" d="M 238.007812 85.878906 L 238.007812 114.878906 C 238.429688 114.875 238.738281 114.871094 238.804688 114.867188 C 246.339844 114.386719 252.328125 106.707031 252.328125 97.304688 C 252.328125 88.503906 247.082031 81.214844 240.234375 79.925781 C 239.582031 81.890625 238.855469 83.898438 238.054688 85.949219 C 238.039062 85.925781 238.023438 85.902344 238.007812 85.878906 Z M 238.007812 85.878906 " fill-opacity="1" fill-rule="evenodd"/><g fill="#1865c1" fill-opacity="1"><g transform="translate(81.719186, 372.111216)"><g><path d="M 1.296875 -0.421875 L 1.296875 -20.390625 C 1.296875 -20.660156 1.4375 -20.796875 1.71875 -20.796875 L 7.953125 -20.796875 C 9.179688 -20.796875 10.113281 -20.476562 10.75 -19.84375 C 11.382812 -19.21875 11.703125 -18.289062 11.703125 -17.0625 L 11.703125 -10.71875 C 11.703125 -9.5 11.382812 -8.566406 10.75 -7.921875 C 10.113281 -7.285156 9.179688 -6.96875 7.953125 -6.96875 L 4.84375 -6.96875 L 4.84375 -0.421875 C 4.84375 -0.140625 4.703125 0 4.421875 0 L 1.71875 0 C 1.4375 0 1.296875 -0.140625 1.296875 -0.421875 Z M 4.84375 -10.40625 L 7.125 -10.40625 C 7.8125 -10.40625 8.15625 -10.75 8.15625 -11.4375 L 8.15625 -16.328125 C 8.15625 -17.023438 7.8125 -17.375 7.125 -17.375 L 4.84375 -17.375 Z M 4.84375 -10.40625 "/></g></g></g><g fill="#1865c1" fill-opacity="1"><g transform="translate(94.71529, 372.111216)"><g><path d="M 11.984375 -17.0625 L 11.984375 -10.71875 C 11.984375 -8.976562 11.351562 -7.832031 10.09375 -7.28125 L 11.875 -0.46875 C 11.96875 -0.15625 11.847656 0 11.515625 0 L 8.8125 0 C 8.570312 0 8.425781 -0.117188 8.375 -0.359375 L 6.625 -6.96875 L 4.84375 -6.96875 L 4.84375 -0.421875 C 4.84375 -0.140625 4.703125 0 4.421875 0 L 1.71875 0 C 1.4375 0 1.296875 -0.140625 1.296875 -0.421875 L 1.296875 -20.390625 C 1.296875 -20.660156 1.4375 -20.796875 1.71875 -20.796875 L 8.234375 -20.796875 C 9.472656 -20.796875 10.40625 -20.476562 11.03125 -19.84375 C 11.664062 -19.21875 11.984375 -18.289062 11.984375 -17.0625 Z M 4.84375 -10.40625 L 7.40625 -10.40625 C 8.101562 -10.40625 8.453125 -10.75 8.453125 -11.4375 L 8.453125 -16.328125 C 8.453125 -17.023438 8.101562 -17.375 7.40625 -17.375 L 4.84375 -17.375 Z M 4.84375 -10.40625 "/></g></g></g><g fill="#1865c1" fill-opacity="1"><g transform="translate(107.997314, 372.111216)"><g><path d="M 1.71875 -20.796875 L 4.421875 -20.796875 C 4.703125 -20.796875 4.84375 -20.660156 4.84375 -20.390625 L 4.84375 -0.421875 C 4.84375 -0.140625 4.703125 0 4.421875 0 L 1.71875 0 C 1.4375 0 1.296875 -0.140625 1.296875 -0.421875 L 1.296875 -20.390625 C 1.296875 -20.660156 1.4375 -20.796875 1.71875 -20.796875 Z M 1.71875 -20.796875 "/></g></g></g><g fill="#1865c1" fill-opacity="1"><g transform="translate(114.131473, 372.111216)"><g><path d="M 1.203125 -20.796875 L 10.765625 -20.796875 C 11.046875 -20.796875 11.1875 -20.660156 11.1875 -20.390625 L 11.1875 -17.78125 C 11.1875 -17.507812 11.046875 -17.375 10.765625 -17.375 L 7.75 -17.375 L 7.75 -0.421875 C 7.75 -0.140625 7.609375 0 7.328125 0 L 4.625 0 C 4.351562 0 4.21875 -0.140625 4.21875 -0.421875 L 4.21875 -17.375 L 1.203125 -17.375 C 0.921875 -17.375 0.78125 -17.507812 0.78125 -17.78125 L 0.78125 -20.390625 C 0.78125 -20.660156 0.921875 -20.796875 1.203125 -20.796875 Z M 1.203125 -20.796875 "/></g></g></g><g fill="#1865c1" fill-opacity="1"><g transform="translate(126.087893, 372.111216)"><g><path d="M 8.15625 -12.109375 L 8.15625 -20.390625 C 8.15625 -20.660156 8.296875 -20.796875 8.578125 -20.796875 L 11.265625 -20.796875 C 11.554688 -20.796875 11.703125 -20.660156 11.703125 -20.390625 L 11.703125 -0.421875 C 11.703125 -0.140625 11.554688 0 11.265625 0 L 8.578125 0 C 8.296875 0 8.15625 -0.140625 8.15625 -0.421875 L 8.15625 -8.6875 L 4.84375 -8.6875 L 4.84375 -0.421875 C 4.84375 -0.140625 4.703125 0 4.421875 0 L 1.734375 0 C 1.441406 0 1.296875 -0.140625 1.296875 -0.421875 L 1.296875 -20.390625 C 1.296875 -20.660156 1.441406 -20.796875 1.734375 -20.796875 L 4.421875 -20.796875 C 4.703125 -20.796875 4.84375 -20.660156 4.84375 -20.390625 L 4.84375 -12.109375 Z M 8.15625 -12.109375 "/></g></g></g><g fill="#1865c1" fill-opacity="1"><g transform="translate(139.083997, 372.111216)"><g><path d="M 10.375 -20.796875 L 12.84375 -20.796875 C 13.238281 -20.796875 13.394531 -20.609375 13.3125 -20.234375 L 8.921875 -0.46875 C 8.847656 -0.15625 8.65625 0 8.34375 0 L 5.75 0 C 5.445312 0 5.253906 -0.15625 5.171875 -0.46875 L 0.8125 -20.234375 C 0.71875 -20.609375 0.875 -20.796875 1.28125 -20.796875 L 3.75 -20.796875 C 4.0625 -20.796875 4.25 -20.640625 4.3125 -20.328125 L 7.046875 -6.390625 L 9.796875 -20.328125 C 9.890625 -20.640625 10.082031 -20.796875 10.375 -20.796875 Z M 10.375 -20.796875 "/></g></g></g><g fill="#1865c1" fill-opacity="1"><g transform="translate(153.197765, 372.111216)"><g><path d="M 1.71875 -20.796875 L 4.421875 -20.796875 C 4.703125 -20.796875 4.84375 -20.660156 4.84375 -20.390625 L 4.84375 -0.421875 C 4.84375 -0.140625 4.703125 0 4.421875 0 L 1.71875 0 C 1.4375 0 1.296875 -0.140625 1.296875 -0.421875 L 1.296875 -20.390625 C 1.296875 -20.660156 1.4375 -20.796875 1.71875 -20.796875 Z M 1.71875 -20.796875 "/></g></g></g><g fill="#1865c1" fill-opacity="1"><g transform="translate(159.331924, 372.111216)"><g/></g></g><g fill="#1865c1" fill-opacity="1"><g transform="translate(165.829982, 372.111216)"><g><path d="M 11.671875 -20.390625 L 11.671875 -17.78125 C 11.671875 -17.488281 11.535156 -17.34375 11.265625 -17.34375 L 4.765625 -17.34375 L 4.765625 -12.140625 L 9.71875 -12.140625 C 10 -12.140625 10.140625 -11.992188 10.140625 -11.703125 L 10.140625 -9.125 C 10.140625 -8.832031 10 -8.6875 9.71875 -8.6875 L 4.765625 -8.6875 L 4.765625 -3.4375 L 11.265625 -3.4375 C 11.535156 -3.4375 11.671875 -3.296875 11.671875 -3.015625 L 11.671875 -0.421875 C 11.671875 -0.140625 11.535156 0 11.265625 0 L 1.6875 0 C 1.425781 0 1.296875 -0.140625 1.296875 -0.421875 L 1.296875 -20.390625 C 1.296875 -20.660156 1.425781 -20.796875 1.6875 -20.796875 L 11.265625 -20.796875 C 11.535156 -20.796875 11.671875 -20.660156 11.671875 -20.390625 Z M 11.671875 -20.390625 "/></g></g></g><g fill="#1865c1" fill-opacity="1"><g transform="translate(178.800097, 372.111216)"><g><path d="M 4.84375 -3.4375 L 4.84375 -20.390625 C 4.84375 -20.660156 4.703125 -20.796875 4.421875 -20.796875 L 1.71875 -20.796875 C 1.4375 -20.796875 1.296875 -20.660156 1.296875 -20.390625 L 1.296875 -0.421875 C 1.296875 -0.140625 1.4375 0 1.71875 0 L 11.03125 0 C 11.300781 0 11.4375 -0.140625 11.4375 -0.421875 L 11.4375 -3.015625 C 11.4375 -3.296875 11.300781 -3.4375 11.03125 -3.4375 Z M 4.84375 -3.4375 "/></g></g></g><g fill="#1865c1" fill-opacity="1"><g transform="translate(191.536283, 372.111216)"><g><path d="M 13.828125 0 L 11.078125 0 C 10.847656 0 10.707031 -0.117188 10.65625 -0.359375 L 9.9375 -4.15625 L 5.296875 -4.15625 L 4.609375 -0.359375 C 4.554688 -0.117188 4.414062 0 4.1875 0 L 1.40625 0 C 1.09375 0 0.976562 -0.144531 1.0625 -0.4375 L 5.375 -20.4375 C 5.425781 -20.675781 5.578125 -20.796875 5.828125 -20.796875 L 9.4375 -20.796875 C 9.675781 -20.796875 9.820312 -20.675781 9.875 -20.4375 L 14.203125 -0.4375 C 14.253906 -0.144531 14.128906 0 13.828125 0 Z M 9.28125 -7.171875 L 7.625 -16.25 L 5.953125 -7.171875 Z M 9.28125 -7.171875 "/></g></g></g><g fill="#1865c1" fill-opacity="1"><g transform="translate(206.767716, 372.111216)"><g><path d="M 9.28125 -20.796875 L 11.984375 -20.796875 C 12.265625 -20.796875 12.40625 -20.660156 12.40625 -20.390625 L 12.40625 -0.421875 C 12.40625 -0.140625 12.265625 0 11.984375 0 L 9.40625 0 C 9.164062 0 9.007812 -0.113281 8.9375 -0.34375 L 4.96875 -11.4375 L 4.84375 -11.4375 L 4.84375 -0.421875 C 4.84375 -0.140625 4.703125 0 4.421875 0 L 1.71875 0 C 1.4375 0 1.296875 -0.140625 1.296875 -0.421875 L 1.296875 -20.390625 C 1.296875 -20.660156 1.4375 -20.796875 1.71875 -20.796875 L 4.296875 -20.796875 C 4.535156 -20.796875 4.691406 -20.6875 4.765625 -20.46875 L 8.703125 -9.40625 L 8.859375 -9.40625 L 8.859375 -20.390625 C 8.859375 -20.660156 9 -20.796875 9.28125 -20.796875 Z M 9.28125 -20.796875 "/></g></g></g><g fill="#1865c1" fill-opacity="1"><g transform="translate(220.465618, 372.111216)"><g><path d="M 11.71875 -17.0625 L 11.71875 -14.25 C 11.71875 -13.96875 11.582031 -13.828125 11.3125 -13.828125 L 8.703125 -13.828125 C 8.429688 -13.828125 8.296875 -13.96875 8.296875 -14.25 L 8.296875 -16.328125 C 8.296875 -17.023438 7.945312 -17.375 7.25 -17.375 L 5.90625 -17.375 C 5.207031 -17.375 4.859375 -17.023438 4.859375 -16.328125 L 4.859375 -4.46875 C 4.859375 -3.78125 5.207031 -3.4375 5.90625 -3.4375 L 7.25 -3.4375 C 7.945312 -3.4375 8.296875 -3.78125 8.296875 -4.46875 L 8.296875 -6.546875 C 8.296875 -6.828125 8.429688 -6.96875 8.703125 -6.96875 L 11.3125 -6.96875 C 11.582031 -6.96875 11.71875 -6.828125 11.71875 -6.546875 L 11.71875 -3.75 C 11.71875 -2.53125 11.394531 -1.597656 10.75 -0.953125 C 10.113281 -0.316406 9.191406 0 7.984375 0 L 5.0625 0 C 3.851562 0 2.921875 -0.316406 2.265625 -0.953125 C 1.617188 -1.597656 1.296875 -2.53125 1.296875 -3.75 L 1.296875 -17.0625 C 1.296875 -18.289062 1.617188 -19.21875 2.265625 -19.84375 C 2.921875 -20.476562 3.851562 -20.796875 5.0625 -20.796875 L 7.984375 -20.796875 C 9.191406 -20.796875 10.113281 -20.476562 10.75 -19.84375 C 11.394531 -19.21875 11.71875 -18.289062 11.71875 -17.0625 Z M 11.71875 -17.0625 "/></g></g></g><g fill="#1865c1" fill-opacity="1"><g transform="translate(233.487711, 372.111216)"><g><path d="M 8.15625 -12.109375 L 8.15625 -20.390625 C 8.15625 -20.660156 8.296875 -20.796875 8.578125 -20.796875 L 11.265625 -20.796875 C 11.554688 -20.796875 11.703125 -20.660156 11.703125 -20.390625 L 11.703125 -0.421875 C 11.703125 -0.140625 11.554688 0 11.265625 0 L 8.578125 0 C 8.296875 0 8.15625 -0.140625 8.15625 -0.421875 L 8.15625 -8.6875 L 4.84375 -8.6875 L 4.84375 -0.421875 C 4.84375 -0.140625 4.703125 0 4.421875 0 L 1.734375 0 C 1.441406 0 1.296875 -0.140625 1.296875 -0.421875 L 1.296875 -20.390625 C 1.296875 -20.660156 1.441406 -20.796875 1.734375 -20.796875 L 4.421875 -20.796875 C 4.703125 -20.796875 4.84375 -20.660156 4.84375 -20.390625 L 4.84375 -12.109375 Z M 8.15625 -12.109375 "/></g></g></g><g fill="#1865c1" fill-opacity="1"><g transform="translate(246.483816, 372.111216)"><g><path d="M 11.671875 -20.390625 L 11.671875 -17.78125 C 11.671875 -17.488281 11.535156 -17.34375 11.265625 -17.34375 L 4.765625 -17.34375 L 4.765625 -12.140625 L 9.71875 -12.140625 C 10 -12.140625 10.140625 -11.992188 10.140625 -11.703125 L 10.140625 -9.125 C 10.140625 -8.832031 10 -8.6875 9.71875 -8.6875 L 4.765625 -8.6875 L 4.765625 -3.4375 L 11.265625 -3.4375 C 11.535156 -3.4375 11.671875 -3.296875 11.671875 -3.015625 L 11.671875 -0.421875 C 11.671875 -0.140625 11.535156 0 11.265625 0 L 1.6875 0 C 1.425781 0 1.296875 -0.140625 1.296875 -0.421875 L 1.296875 -20.390625 C 1.296875 -20.660156 1.425781 -20.796875 1.6875 -20.796875 L 11.265625 -20.796875 C 11.535156 -20.796875 11.671875 -20.660156 11.671875 -20.390625 Z M 11.671875 -20.390625 "/></g></g></g><g fill="#1865c1" fill-opacity="1"><g transform="translate(259.453931, 372.111216)"><g><path d="M 11.984375 -17.0625 L 11.984375 -10.71875 C 11.984375 -8.976562 11.351562 -7.832031 10.09375 -7.28125 L 11.875 -0.46875 C 11.96875 -0.15625 11.847656 0 11.515625 0 L 8.8125 0 C 8.570312 0 8.425781 -0.117188 8.375 -0.359375 L 6.625 -6.96875 L 4.84375 -6.96875 L 4.84375 -0.421875 C 4.84375 -0.140625 4.703125 0 4.421875 0 L 1.71875 0 C 1.4375 0 1.296875 -0.140625 1.296875 -0.421875 L 1.296875 -20.390625 C 1.296875 -20.660156 1.4375 -20.796875 1.71875 -20.796875 L 8.234375 -20.796875 C 9.472656 -20.796875 10.40625 -20.476562 11.03125 -19.84375 C 11.664062 -19.21875 11.984375 -18.289062 11.984375 -17.0625 Z M 4.84375 -10.40625 L 7.40625 -10.40625 C 8.101562 -10.40625 8.453125 -10.75 8.453125 -11.4375 L 8.453125 -16.328125 C 8.453125 -17.023438 8.101562 -17.375 7.40625 -17.375 L 4.84375 -17.375 Z M 4.84375 -10.40625 "/></g></g></g><g fill="#1865c1" fill-opacity="1"><g transform="translate(272.735954, 372.111216)"><g><path d="M 11.984375 -17.0625 L 11.984375 -10.71875 C 11.984375 -8.976562 11.351562 -7.832031 10.09375 -7.28125 L 11.875 -0.46875 C 11.96875 -0.15625 11.847656 0 11.515625 0 L 8.8125 0 C 8.570312 0 8.425781 -0.117188 8.375 -0.359375 L 6.625 -6.96875 L 4.84375 -6.96875 L 4.84375 -0.421875 C 4.84375 -0.140625 4.703125 0 4.421875 0 L 1.71875 0 C 1.4375 0 1.296875 -0.140625 1.296875 -0.421875 L 1.296875 -20.390625 C 1.296875 -20.660156 1.4375 -20.796875 1.71875 -20.796875 L 8.234375 -20.796875 C 9.472656 -20.796875 10.40625 -20.476562 11.03125 -19.84375 C 11.664062 -19.21875 11.984375 -18.289062 11.984375 -17.0625 Z M 4.84375 -10.40625 L 7.40625 -10.40625 C 8.101562 -10.40625 8.453125 -10.75 8.453125 -11.4375 L 8.453125 -16.328125 C 8.453125 -17.023438 8.101562 -17.375 7.40625 -17.375 L 4.84375 -17.375 Z M 4.84375 -10.40625 "/></g></g></g><g fill="#1865c1" fill-opacity="1"><g transform="translate(286.017978, 372.111216)"><g><path d="M 13.828125 0 L 11.078125 0 C 10.847656 0 10.707031 -0.117188 10.65625 -0.359375 L 9.9375 -4.15625 L 5.296875 -4.15625 L 4.609375 -0.359375 C 4.554688 -0.117188 4.414062 0 4.1875 0 L 1.40625 0 C 1.09375 0 0.976562 -0.144531 1.0625 -0.4375 L 5.375 -20.4375 C 5.425781 -20.675781 5.578125 -20.796875 5.828125 -20.796875 L 9.4375 -20.796875 C 9.675781 -20.796875 9.820312 -20.675781 9.875 -20.4375 L 14.203125 -0.4375 C 14.253906 -0.144531 14.128906 0 13.828125 0 Z M 9.28125 -7.171875 L 7.625 -16.25 L 5.953125 -7.171875 Z M 9.28125 -7.171875 "/></g></g></g><g fill="#1865c1" fill-opacity="1"><g transform="translate(301.249399, 372.111216)"><g><path d="M 9.28125 -20.796875 L 11.984375 -20.796875 C 12.265625 -20.796875 12.40625 -20.660156 12.40625 -20.390625 L 12.40625 -0.421875 C 12.40625 -0.140625 12.265625 0 11.984375 0 L 9.40625 0 C 9.164062 0 9.007812 -0.113281 8.9375 -0.34375 L 4.96875 -11.4375 L 4.84375 -11.4375 L 4.84375 -0.421875 C 4.84375 -0.140625 4.703125 0 4.421875 0 L 1.71875 0 C 1.4375 0 1.296875 -0.140625 1.296875 -0.421875 L 1.296875 -20.390625 C 1.296875 -20.660156 1.4375 -20.796875 1.71875 -20.796875 L 4.296875 -20.796875 C 4.535156 -20.796875 4.691406 -20.6875 4.765625 -20.46875 L 8.703125 -9.40625 L 8.859375 -9.40625 L 8.859375 -20.390625 C 8.859375 -20.660156 9 -20.796875 9.28125 -20.796875 Z M 9.28125 -20.796875 "/></g></g></g></svg>